{
  "source": "C:\\Users\\Peter\\Desktop\\stuff\\MIUN\\quantitative_research\\video_compression\\videos\\BVI-HD\\Grass_1920x1080_60fps.mp4",
  "output": "C:\\Users\\Peter\\Desktop\\stuff\\MIUN\\quantitative_research\\video_compression\\compressed_videos\\BVI-HD\\av1\\12\\Grass_1920x1080_60fps_av1.mkv",
  "codec": "av1",
  "ok": "Input #0, mov,mp4,m4a,3gp,3g2,mj2, from 'C:\\Users\\Peter\\Desktop\\stuff\\MIUN\\quantitative_research\\video_compression\\videos\\BVI-HD\\Grass_1920x1080_60fps.mp4':\n  Metadata:\n    major_brand     : isom\n    minor_version   : 512\n    compatible_brands: isomiso2avc1mp41\n    encoder         : Lavf54.28.101\n  Duration: 00:00:05.00, start: 0.000000, bitrate: 655968 kb/s\n  Stream #0:0[0x1](und): Video: h264 (High 4:4:4 Predictive) (avc1 / 0x31637661), yuv420p(progressive), 1920x1080, 655963 kb/s, 60 fps, 60 tbr, 60 tbn (default)\n    Metadata:\n      handler_name    : VideoHandler\n      vendor_id       : [0][0][0][0]\n[out#0/matroska @ 0000024d96d791c0] Codec AVOption b:a (set bitrate (in bits/s)) has not been used for any stream. The most likely reason is either wrong type (e.g. a video option with no video streams) or that it is a private option of some decoder which was not actually used for any stream.\nStream mapping:\n  Stream #0:0 -> #0:0 (h264 (native) -> av1 (libsvtav1))\nPress [q] to stop, [?] for help\nSvt[info]: -------------------------------------------\nSvt[info]: SVT [version]:\tSVT-AV1 Encoder Lib v3.1.0-19-g6ecfe8ec\nSvt[info]: SVT [build]  :\tGCC 15.2.0\t 64 bit\nSvt[info]: LIB Build date: Aug 17 2025 11:37:13\nSvt[info]: -------------------------------------------\nSvt[info]: Level of Parallelism: 5\nSvt[info]: Number of PPCS 93\nSvt[info]: [asm level on system : up to avx2]\nSvt[info]: [asm level selected : up to avx2]\nSvt[info]: -------------------------------------------\nSvt[info]: SVT [config]: main profile\ttier (auto)\tlevel (auto)\nSvt[info]: SVT [config]: width / height / fps numerator / fps denominator \t\t: 1920 / 1080 / 60 / 1\nSvt[info]: SVT [config]: bit-depth / color format \t\t\t\t\t: 8 / YUV420\nSvt[info]: SVT [config]: preset / tune / pred struct \t\t\t\t\t: 4 / PSNR / random access\nSvt[info]: SVT [config]: gop size / mini-gop size / key-frame type \t\t\t: 321 / 16 / key frame\nSvt[info]: SVT [config]: BRC mode / target bitrate (kbps)\t\t\t\t: VBR / 12000 \nSvt[info]: SVT [config]: AQ mode / Variance Boost \t\t\t\t\t: 2 / 0\nSvt[info]: SVT [config]: sharpness / luminance-based QP bias \t\t\t\t: 0 / 0\nSvt[info]: SVT [config]: QP scale compress strength \t\t\t\t\t: 0\nSvt[info]: -------------------------------------------\nOutput #0, matroska, to 'C:\\Users\\Peter\\Desktop\\stuff\\MIUN\\quantitative_research\\video_compression\\compressed_videos\\BVI-HD\\av1\\12\\Grass_1920x1080_60fps_av1.mkv':\n  Metadata:\n    major_brand     : isom\n    minor_version   : 512\n    compatible_brands: isomiso2avc1mp41\n    encoder         : Lavf62.3.100\n  Stream #0:0(und): Video: av1 (AV01 / 0x31305641), yuv420p(tv, progressive), 1920x1080, q=2-31, 12000 kb/s, 60 fps, 1k tbn (default)\n    Metadata:\n      encoder         : Lavc62.11.100 libsvtav1\n      handler_name    : VideoHandler\n      vendor_id       : [0][0][0][0]\n    Side data:\n      cpb: bitrate max/min/avg: 0/0/12000000 buffer size: 12000000 vbv_delay: N/A\nframe=    0 fps=0.0 q=0.0 size=       0KiB time=N/A bitrate=N/A speed=N/A elapsed=0:00:02.27    \nframe=    0 fps=0.0 q=0.0 size=       0KiB time=N/A bitrate=N/A speed=N/A elapsed=0:00:02.79    \nframe=    0 fps=0.0 q=0.0 size=       0KiB time=N/A bitrate=N/A speed=N/A elapsed=0:00:03.31    \nframe=    0 fps=0.0 q=0.0 size=       0KiB time=N/A bitrate=N/A speed=N/A elapsed=0:00:03.86    \nframe=    0 fps=0.0 q=0.0 size=       0KiB time=N/A bitrate=N/A speed=N/A elapsed=0:00:04.41    \nframe=    0 fps=0.0 q=0.0 size=       0KiB time=N/A bitrate=N/A speed=N/A elapsed=0:00:05.01    \nframe=    0 fps=0.0 q=0.0 size=       0KiB time=N/A bitrate=N/A speed=N/A elapsed=0:00:05.58    \nframe=    0 fps=0.0 q=0.0 size=       0KiB time=N/A bitrate=N/A speed=N/A elapsed=0:00:06.28    \nframe=    0 fps=0.0 q=0.0 size=       0KiB time=N/A bitrate=N/A speed=N/A elapsed=0:00:06.84    \nframe=    0 fps=0.0 q=0.0 size=       0KiB time=N/A bitrate=N/A speed=N/A elapsed=0:00:07.50    \nframe=    0 fps=0.0 q=0.0 size=       0KiB time=N/A bitrate=N/A speed=N/A elapsed=0:00:08.10    \nframe=    0 fps=0.0 q=0.0 size=       0KiB time=N/A bitrate=N/A speed=N/A elapsed=0:00:08.74    \nframe=    0 fps=0.0 q=0.0 size=       0KiB time=N/A bitrate=N/A speed=N/A elapsed=0:00:09.30    \nframe=    0 fps=0.0 q=0.0 size=       0KiB time=N/A bitrate=N/A speed=N/A elapsed=0:00:09.86    \nframe=    0 fps=0.0 q=0.0 size=       0KiB time=N/A bitrate=N/A speed=N/A elapsed=0:00:10.47    \nframe=    0 fps=0.0 q=0.0 size=       0KiB time=N/A bitrate=N/A speed=N/A elapsed=0:00:11.07    \nframe=    0 fps=0.0 q=0.0 size=       0KiB time=N/A bitrate=N/A speed=N/A elapsed=0:00:11.71    \nframe=    0 fps=0.0 q=0.0 size=       0KiB time=N/A bitrate=N/A speed=N/A elapsed=0:00:12.33    \nframe=    1 fps=0.1 q=9.0 size=       1KiB time=00:00:00.00 bitrate=N/A speed=   0x elapsed=0:00:12.89    \nframe=    1 fps=0.1 q=9.0 size=       1KiB time=00:00:00.00 bitrate=N/A speed=   0x elapsed=0:00:13.44    \nframe=    1 fps=0.1 q=9.0 size=       1KiB time=00:00:00.00 bitrate=N/A speed=   0x elapsed=0:00:13.98    \nframe=    2 fps=0.1 q=31.0 size=       1KiB time=00:00:00.00 bitrate=N/A speed=   0x elapsed=0:00:14.57    \nframe=    4 fps=0.3 q=31.0 size=       1KiB time=00:00:00.05 bitrate= 113.9kbits/s speed=0.00329x elapsed=0:00:15.19    \nframe=    7 fps=0.4 q=29.0 size=       1KiB time=00:00:00.10 bitrate=  57.0kbits/s speed=0.00636x elapsed=0:00:15.72    \nframe=   10 fps=0.6 q=29.0 size=       1KiB time=00:00:00.13 bitrate=  42.7kbits/s speed=0.00821x elapsed=0:00:16.23    \nframe=   12 fps=0.7 q=29.0 size=       1KiB time=00:00:00.18 bitrate=  31.1kbits/s speed=0.0109x elapsed=0:00:16.82    \nframe=   15 fps=0.9 q=26.0 size=       1KiB time=00:00:00.23 bitrate=  24.4kbits/s speed=0.0134x elapsed=0:00:17.35    \nframe=   18 fps=1.0 q=29.0 size=       1KiB time=00:00:00.28 bitrate=  20.1kbits/s speed=0.0158x elapsed=0:00:17.95    \nframe=   22 fps=1.2 q=30.0 size=       1KiB time=00:00:00.35 bitrate=  16.3kbits/s speed=0.0188x elapsed=0:00:18.59    \nframe=   23 fps=1.2 q=25.0 size=       1KiB time=00:00:00.36 bitrate=  15.5kbits/s speed=0.019x elapsed=0:00:19.28    \nframe=   27 fps=1.4 q=27.0 size=       1KiB time=00:00:00.43 bitrate=  13.1kbits/s speed=0.0217x elapsed=0:00:19.98    \nframe=   30 fps=1.5 q=30.0 size=       1KiB time=00:00:00.48 bitrate=  11.8kbits/s speed=0.0235x elapsed=0:00:20.60    \nframe=   33 fps=1.6 q=12.0 size=       1KiB time=00:00:00.53 bitrate=  10.7kbits/s speed=0.0252x elapsed=0:00:21.19    \nframe=   38 fps=1.7 q=31.0 size=       1KiB time=00:00:00.61 bitrate=   9.2kbits/s speed=0.0284x elapsed=0:00:21.73    \nframe=   40 fps=1.8 q=31.0 size=       1KiB time=00:00:00.65 bitrate=   8.8kbits/s speed=0.0291x elapsed=0:00:22.30    \nframe=   45 fps=2.0 q=25.0 size=       1KiB time=00:00:00.73 bitrate=   7.8kbits/s speed=0.032x elapsed=0:00:22.88    \nframe=   48 fps=2.0 q=28.0 size=       1KiB time=00:00:00.76 bitrate=   7.4kbits/s speed=0.0327x elapsed=0:00:23.43    \nframe=   51 fps=2.1 q=30.0 size=       1KiB time=00:00:00.83 bitrate=   6.8kbits/s speed=0.0347x elapsed=0:00:24.02    \nframe=   54 fps=2.2 q=31.0 size=       1KiB time=00:00:00.88 bitrate=   6.4kbits/s speed=0.0359x elapsed=0:00:24.57    \nframe=   57 fps=2.3 q=24.0 size=       1KiB time=00:00:00.93 bitrate=   6.1kbits/s speed=0.0372x elapsed=0:00:25.09    \nframe=   62 fps=2.4 q=31.0 size=       1KiB time=00:00:01.00 bitrate=   5.7kbits/s speed=0.039x elapsed=0:00:25.64    \nframe=   65 fps=2.5 q=15.0 size=       1KiB time=00:00:01.06 bitrate=   5.3kbits/s speed=0.0407x elapsed=0:00:26.19    \nframe=   70 fps=2.6 q=32.0 size=       1KiB time=00:00:01.15 bitrate=   5.0kbits/s speed=0.043x elapsed=0:00:26.73    \nframe=   72 fps=2.6 q=32.0 size=       1KiB time=00:00:01.18 bitrate=   4.8kbits/s speed=0.0434x elapsed=0:00:27.29    \nframe=   77 fps=2.8 q=27.0 size=       1KiB time=00:00:01.26 bitrate=   4.5kbits/s speed=0.0455x elapsed=0:00:27.85    \nframe=   81 fps=2.8 q=16.0 size=       1KiB time=00:00:01.33 bitrate=   4.3kbits/s speed=0.0469x elapsed=0:00:28.44    \nframe=   85 fps=2.9 q=30.0 size=       1KiB time=00:00:01.40 bitrate=   4.1kbits/s speed=0.0483x elapsed=0:00:28.97    \nframe=   89 fps=3.0 q=26.0 size=       1KiB time=00:00:01.45 bitrate=   3.9kbits/s speed=0.0491x elapsed=0:00:29.51    \nframe=   94 fps=3.1 q=33.0 size=       1KiB time=00:00:01.55 bitrate=   3.7kbits/s speed=0.0515x elapsed=0:00:30.11    \nframe=   99 fps=3.2 q=32.0 size=       1KiB time=00:00:01.61 bitrate=   3.5kbits/s speed=0.0526x elapsed=0:00:30.71    \nframe=  102 fps=3.3 q=33.0 size=       1KiB time=00:00:01.66 bitrate=   3.4kbits/s speed=0.0533x elapsed=0:00:31.29    \nframe=  106 fps=3.3 q=33.0 size=       1KiB time=00:00:01.75 bitrate=   3.3kbits/s speed=0.0549x elapsed=0:00:31.84    \nframe=  110 fps=3.4 q=31.0 size=       1KiB time=00:00:01.81 bitrate=   3.1kbits/s speed=0.056x elapsed=0:00:32.45    \nframe=  114 fps=3.5 q=33.0 size=       1KiB time=00:00:01.88 bitrate=   3.0kbits/s speed=0.0571x elapsed=0:00:33.00    \nframe=  117 fps=3.5 q=30.0 size=       1KiB time=00:00:01.93 bitrate=   2.9kbits/s speed=0.0575x elapsed=0:00:33.59    \nframe=  122 fps=3.6 q=33.0 size=       1KiB time=00:00:02.01 bitrate=   2.8kbits/s speed=0.0591x elapsed=0:00:34.12    \nframe=  127 fps=3.7 q=32.0 size=       1KiB time=00:00:02.08 bitrate=   2.7kbits/s speed=0.0599x elapsed=0:00:34.76    \nframe=  130 fps=3.7 q=33.0 size=       1KiB time=00:00:02.15 bitrate=   2.6kbits/s speed=0.0607x elapsed=0:00:35.42    \nframe=  133 fps=3.7 q=30.0 size=       1KiB time=00:00:02.20 bitrate=   2.6kbits/s speed=0.0611x elapsed=0:00:36.00    \nframe=  134 fps=3.7 q=33.0 size=       1KiB time=00:00:02.21 bitrate=   2.6kbits/s speed=0.0604x elapsed=0:00:36.70    \nframe=  137 fps=3.7 q=26.0 size=       1KiB time=00:00:02.26 bitrate=   2.5kbits/s speed=0.0609x elapsed=0:00:37.22    \nframe=  140 fps=3.7 q=25.0 size=       1KiB time=00:00:02.30 bitrate=   2.5kbits/s speed=0.0608x elapsed=0:00:37.82    \nframe=  143 fps=3.7 q=28.0 size=       1KiB time=00:00:02.35 bitrate=   2.4kbits/s speed=0.0611x elapsed=0:00:38.46    \nframe=  146 fps=3.7 q=32.0 size=       1KiB time=00:00:02.40 bitrate=   2.4kbits/s speed=0.0614x elapsed=0:00:39.10    \nframe=  149 fps=3.7 q=29.0 size=       1KiB time=00:00:02.46 bitrate=   2.3kbits/s speed=0.062x elapsed=0:00:39.76    \nframe=  151 fps=3.7 q=31.0 size=       1KiB time=00:00:02.50 bitrate=   2.3kbits/s speed=0.0619x elapsed=0:00:40.38    \nframe=  152 fps=3.7 q=32.0 size=       1KiB time=00:00:02.51 bitrate=   2.3kbits/s speed=0.0614x elapsed=0:00:41.00    \nframe=  156 fps=3.8 q=32.0 size=       1KiB time=00:00:02.58 bitrate=   2.2kbits/s speed=0.0622x elapsed=0:00:41.53    \nframe=  159 fps=3.8 q=30.0 size=       1KiB time=00:00:02.61 bitrate=   2.2kbits/s speed=0.0621x elapsed=0:00:42.16    \nframe=  162 fps=3.8 q=33.0 size=       1KiB time=00:00:02.68 bitrate=   2.1kbits/s speed=0.0625x elapsed=0:00:42.90    \nframe=  165 fps=3.8 q=30.0 size=    5120KiB time=00:00:02.73 bitrate=15345.0kbits/s speed=0.0628x elapsed=0:00:43.52    \nframe=  168 fps=3.8 q=33.0 size=    5120KiB time=00:00:02.78 bitrate=15069.4kbits/s speed=0.0629x elapsed=0:00:44.23    \nframe=  172 fps=3.8 q=33.0 size=    5120KiB time=00:00:02.83 bitrate=14803.4kbits/s speed=0.0632x elapsed=0:00:44.86    \nframe=  175 fps=3.8 q=28.0 size=    5120KiB time=00:00:02.90 bitrate=14463.1kbits/s speed=0.0638x elapsed=0:00:45.46    \nframe=  179 fps=3.9 q=31.0 size=    5120KiB time=00:00:02.95 bitrate=14218.0kbits/s speed=0.064x elapsed=0:00:46.09    \nframe=  181 fps=3.9 q=29.0 size=    5120KiB time=00:00:03.00 bitrate=13981.0kbits/s speed=0.0642x elapsed=0:00:46.75    \nframe=  184 fps=3.9 q=32.0 size=    5120KiB time=00:00:03.05 bitrate=13751.8kbits/s speed=0.0645x elapsed=0:00:47.32    \nframe=  189 fps=3.9 q=29.0 size=    5120KiB time=00:00:03.11 bitrate=13457.7kbits/s speed=0.065x elapsed=0:00:47.98    \nframe=  191 fps=3.9 q=31.0 size=    5120KiB time=00:00:03.16 bitrate=13245.2kbits/s speed=0.0652x elapsed=0:00:48.55    \nframe=  195 fps=4.0 q=31.0 size=    5120KiB time=00:00:03.23 bitrate=12972.1kbits/s speed=0.0658x elapsed=0:00:49.15    \nframe=  199 fps=4.0 q=31.0 size=    5120KiB time=00:00:03.30 bitrate=12710.0kbits/s speed=0.0664x elapsed=0:00:49.68    \nframe=  205 fps=4.1 q=29.0 size=    5120KiB time=00:00:03.40 bitrate=12336.2kbits/s speed=0.0676x elapsed=0:00:50.28    \nframe=  209 fps=4.1 q=16.0 size=    5120KiB time=00:00:03.46 bitrate=12099.0kbits/s speed=0.0682x elapsed=0:00:50.86    \nframe=  213 fps=4.1 q=29.0 size=    5120KiB time=00:00:03.53 bitrate=11870.7kbits/s speed=0.0687x elapsed=0:00:51.41    \nframe=  217 fps=4.2 q=25.0 size=    5120KiB time=00:00:03.60 bitrate=11650.8kbits/s speed=0.0693x elapsed=0:00:51.94    \nframe=  223 fps=4.2 q=27.0 size=    5120KiB time=00:00:03.70 bitrate=11336.0kbits/s speed=0.0705x elapsed=0:00:52.49    \nframe=  229 fps=4.3 q=28.0 size=    5120KiB time=00:00:03.76 bitrate=11135.3kbits/s speed=0.071x elapsed=0:00:53.02    \nframe=  233 fps=4.3 q=25.0 size=    5120KiB time=00:00:03.86 bitrate=10847.3kbits/s speed=0.0721x elapsed=0:00:53.59    \nframe=  237 fps=4.4 q=28.0 size=    5120KiB time=00:00:03.93 bitrate=10663.5kbits/s speed=0.0727x elapsed=0:00:54.12    \nframe=  243 fps=4.4 q=30.0 size=    5120KiB time=00:00:04.03 bitrate=10399.1kbits/s speed=0.0737x elapsed=0:00:54.71    \nframe=  249 fps=4.5 q=24.0 size=    5120KiB time=00:00:04.13 bitrate=10147.5kbits/s speed=0.0748x elapsed=0:00:55.28    \nframe=  253 fps=4.5 q=28.0 size=    5120KiB time=00:00:04.20 bitrate=9986.4kbits/s speed=0.0752x elapsed=0:00:55.83    \nframe=  257 fps=4.6 q=15.0 size=    5120KiB time=00:00:04.26 bitrate=9830.4kbits/s speed=0.0757x elapsed=0:00:56.37    \nframe=  265 fps=4.7 q=24.0 size=    5120KiB time=00:00:04.40 bitrate=9532.5kbits/s speed=0.0773x elapsed=0:00:56.91    \nframe=  267 fps=4.6 q=30.0 size=    5120KiB time=00:00:04.43 bitrate=9460.8kbits/s speed=0.0771x elapsed=0:00:57.46    \nframe=  271 fps=4.7 q=25.0 size=    5120KiB time=00:00:04.50 bitrate=9320.7kbits/s speed=0.0775x elapsed=0:00:58.05    \nframe=  275 fps=4.7 q=29.0 size=    5120KiB time=00:00:04.56 bitrate=9184.6kbits/s speed=0.0779x elapsed=0:00:58.59    \nframe=  281 fps=4.8 q=24.0 size=    5120KiB time=00:00:04.66 bitrate=8987.8kbits/s speed=0.0789x elapsed=0:00:59.12    \nframe=  285 fps=4.8 q=32.0 size=    5120KiB time=00:00:04.73 bitrate=8861.2kbits/s speed=0.0793x elapsed=0:00:59.68    \n[out#0/matroska @ 0000024d96d791c0] video:7806KiB audio:0KiB subtitle:0KiB other streams:0KiB global headers:0KiB muxing overhead: 0.027311%\nframe=  300 fps=5.0 q=32.0 Lsize=    7808KiB time=00:00:04.98 bitrate=12835.2kbits/s speed=0.0832x elapsed=0:00:59.89    \n",
  "seconds": 60.72497081756592,
  "probe_out": {}
}